<mxfile host="app.diagrams.net" modified="2021-11-23T02:51:58.455Z" agent="5.0 (Windows NT 10.0; Win64; x64) AppleWebKit/537.36 (KHTML, like Gecko) Chrome/96.0.4664.45 Safari/537.36" etag="MTk2GYXiodl8aygn365y" version="15.8.3" type="github">
  <diagram id="1OlZTNazj41PW167IAss" name="Page-1">
    <mxGraphModel dx="892" dy="488" grid="1" gridSize="10" guides="1" tooltips="1" connect="1" arrows="1" fold="1" page="1" pageScale="1" pageWidth="827" pageHeight="1169" background="#283618" math="0" shadow="0">
      <root>
        <mxCell id="0" />
        <mxCell id="1" parent="0" />
        <mxCell id="3-pgqK9E5HYIyNQKIwFr-1" value="Lenguaje unificado de modelado&lt;br&gt;(UML)&lt;span style=&quot;white-space: pre&quot;&gt;	&lt;/span&gt;" style="rounded=1;whiteSpace=wrap;html=1;fillColor=#BC6C25;strokeColor=#DDA15E;fontStyle=1;fontColor=#FEFAE0;" vertex="1" parent="1">
          <mxGeometry x="270" y="20" width="290" height="60" as="geometry" />
        </mxCell>
        <mxCell id="3-pgqK9E5HYIyNQKIwFr-3" value="Que es?" style="text;html=1;strokeColor=none;fillColor=none;align=center;verticalAlign=middle;whiteSpace=wrap;rounded=0;fontColor=#FEFAE0;" vertex="1" parent="1">
          <mxGeometry x="385" y="80" width="60" height="30" as="geometry" />
        </mxCell>
        <mxCell id="3-pgqK9E5HYIyNQKIwFr-5" value="" style="line;strokeWidth=1;direction=south;html=1;fillColor=#BC6C25;strokeColor=#DDA15E;fontColor=#FEFAE0;labelBackgroundColor=#283618;" vertex="1" parent="1">
          <mxGeometry x="409" y="80" width="11" height="50" as="geometry" />
        </mxCell>
        <mxCell id="3-pgqK9E5HYIyNQKIwFr-13" style="edgeStyle=none;rounded=0;orthogonalLoop=1;jettySize=auto;html=1;exitX=0.5;exitY=1;exitDx=0;exitDy=0;fontColor=#FEFAE0;strokeColor=#DDA15E;labelBackgroundColor=#283618;" edge="1" parent="1" source="3-pgqK9E5HYIyNQKIwFr-10">
          <mxGeometry relative="1" as="geometry">
            <mxPoint x="414" y="210" as="targetPoint" />
          </mxGeometry>
        </mxCell>
        <mxCell id="3-pgqK9E5HYIyNQKIwFr-10" value="Es un lenguaje de modelado que sirve&amp;nbsp; para visualizar, especificar, construir y documentar un sistema" style="rounded=1;strokeWidth=1;fillColor=#BC6C25;strokeColor=#DDA15E;labelBackgroundColor=none;labelBorderColor=none;whiteSpace=wrap;html=1;fontColor=#FEFAE0;" vertex="1" parent="1">
          <mxGeometry x="314" y="110" width="200" height="60" as="geometry" />
        </mxCell>
        <mxCell id="3-pgqK9E5HYIyNQKIwFr-16" style="rounded=0;orthogonalLoop=1;jettySize=auto;html=1;exitX=1;exitY=0.5;exitDx=0;exitDy=0;fontColor=#FEFAE0;strokeColor=#DDA15E;labelBackgroundColor=#283618;" edge="1" parent="1" source="3-pgqK9E5HYIyNQKIwFr-15">
          <mxGeometry relative="1" as="geometry">
            <mxPoint x="600" y="250" as="targetPoint" />
          </mxGeometry>
        </mxCell>
        <mxCell id="3-pgqK9E5HYIyNQKIwFr-17" style="edgeStyle=none;rounded=0;orthogonalLoop=1;jettySize=auto;html=1;exitX=0;exitY=0.5;exitDx=0;exitDy=0;fontColor=#FEFAE0;strokeColor=#DDA15E;labelBackgroundColor=#283618;" edge="1" parent="1" source="3-pgqK9E5HYIyNQKIwFr-15">
          <mxGeometry relative="1" as="geometry">
            <mxPoint x="250" y="250" as="targetPoint" />
          </mxGeometry>
        </mxCell>
        <mxCell id="3-pgqK9E5HYIyNQKIwFr-15" value="Modelos y&lt;br&gt;diagramas" style="ellipse;whiteSpace=wrap;html=1;labelBackgroundColor=none;labelBorderColor=none;fontColor=#FEFAE0;strokeWidth=1;fillColor=#BC6C25;strokeColor=#DDA15E;" vertex="1" parent="1">
          <mxGeometry x="325" y="210" width="180" height="80" as="geometry" />
        </mxCell>
        <mxCell id="3-pgqK9E5HYIyNQKIwFr-20" value="&lt;h1&gt;Diagramas&lt;/h1&gt;&lt;div&gt;REPRESENTACION GRAFICA&amp;nbsp;&lt;/div&gt;&lt;div&gt;DE UNA COLECCION DE ELEMENTOS&amp;nbsp; DE MOLEDO&lt;/div&gt;" style="text;html=1;strokeColor=#DDA15E;fillColor=#BC6C25;spacing=5;spacingTop=-20;whiteSpace=wrap;overflow=hidden;rounded=0;labelBackgroundColor=none;labelBorderColor=none;fontColor=#FEFAE0;" vertex="1" parent="1">
          <mxGeometry x="60" y="190" width="190" height="120" as="geometry" />
        </mxCell>
        <mxCell id="3-pgqK9E5HYIyNQKIwFr-21" value="&lt;h1&gt;Modelos&lt;/h1&gt;&lt;div&gt;CAPTURA UNA VISTA&amp;nbsp; DE UN SITEMA DEL MUNDO REAL&lt;/div&gt;" style="text;html=1;strokeColor=#DDA15E;fillColor=#BC6C25;spacing=5;spacingTop=-20;whiteSpace=wrap;overflow=hidden;rounded=0;labelBackgroundColor=none;labelBorderColor=none;fontColor=#FEFAE0;" vertex="1" parent="1">
          <mxGeometry x="600" y="190" width="190" height="120" as="geometry" />
        </mxCell>
        <mxCell id="3-pgqK9E5HYIyNQKIwFr-22" value="&lt;font color=&quot;#330000&quot; style=&quot;font-size: 16px;&quot;&gt;CASOS DE USO&lt;br style=&quot;font-size: 16px;&quot;&gt;&lt;/font&gt;" style="swimlane;childLayout=stackLayout;horizontal=1;startSize=30;horizontalStack=0;rounded=1;fontSize=16;fontStyle=1;strokeWidth=2;resizeParent=0;resizeLast=1;shadow=0;dashed=0;align=center;labelBackgroundColor=none;labelBorderColor=none;fillColor=#BC6C25;html=1;whiteSpace=wrap;strokeColor=#DDA15E;fontColor=#FEFAE0;" vertex="1" parent="1">
          <mxGeometry x="130" y="360" width="570" height="130" as="geometry" />
        </mxCell>
        <mxCell id="3-pgqK9E5HYIyNQKIwFr-23" value="&lt;font color=&quot;#000033&quot;&gt;Una diagrama de casos de uso muestra las distintas&amp;nbsp; operaciones que se espera de un sistema&lt;br&gt;1.-Es una herramienta&amp;nbsp; esencial para la captura de requerimientos&lt;br&gt;2.-Se representan en el diagrama por una elipse&lt;br&gt;3.-Cada caso de uso es una operacion completa&amp;nbsp; desarrollada por los actores&lt;br&gt;4.-El conjunto&amp;nbsp; de casos de uso representan la totalidad&amp;nbsp; de operaciones&amp;nbsp;desarrolladas por el sistema&lt;br&gt;&lt;/font&gt;" style="align=left;strokeColor=none;fillColor=none;spacingLeft=4;fontSize=12;verticalAlign=top;resizable=0;rotatable=0;part=1;labelBackgroundColor=none;labelBorderColor=none;fontColor=#FEFAE0;html=1;" vertex="1" parent="3-pgqK9E5HYIyNQKIwFr-22">
          <mxGeometry y="30" width="570" height="100" as="geometry" />
        </mxCell>
        <mxCell id="VQ-E5CUEjUANzLoe1kDv-1" value="&lt;h1 style=&quot;font-size: 16px;&quot;&gt;ACTOR.&lt;/h1&gt;&lt;div style=&quot;font-size: 16px;&quot;&gt;Es un usuario del sistema, que necesita o usa alguno de los casos de uso. un usuario puede jugar mas de un rol.&lt;/div&gt;&lt;div style=&quot;font-size: 16px;&quot;&gt;los actores no necesitan&amp;nbsp; ser umanos pueden ser sistemas&lt;/div&gt;&lt;div style=&quot;font-size: 16px;&quot;&gt;&lt;br style=&quot;font-size: 16px;&quot;&gt;&lt;/div&gt;" style="text;html=1;strokeColor=#DDA15E;fillColor=#BC6C25;spacing=5;spacingTop=-20;whiteSpace=wrap;overflow=hidden;rounded=0;labelBackgroundColor=none;labelBorderColor=none;fontSize=16;fontColor=#FEFAE0;" vertex="1" parent="1">
          <mxGeometry x="170" y="500" width="490" height="100" as="geometry" />
        </mxCell>
        <mxCell id="VQ-E5CUEjUANzLoe1kDv-5" style="rounded=0;orthogonalLoop=1;jettySize=auto;html=1;exitX=0.5;exitY=1;exitDx=0;exitDy=0;entryX=0.5;entryY=0;entryDx=0;entryDy=0;fontSize=16;fontColor=#FEFAE0;strokeColor=#DDA15E;labelBackgroundColor=#283618;" edge="1" parent="1" source="3-pgqK9E5HYIyNQKIwFr-23" target="VQ-E5CUEjUANzLoe1kDv-1">
          <mxGeometry relative="1" as="geometry" />
        </mxCell>
        <mxCell id="VQ-E5CUEjUANzLoe1kDv-6" value="" style="shape=image;html=1;verticalLabelPosition=bottom;verticalAlign=top;imageAspect=1;aspect=fixed;image=img/clipart/Gear_128x128.png;rounded=0;sketch=0;fontSize=16;fontColor=#FEFAE0;strokeColor=#DDA15E;fillColor=#BC6C25;" vertex="1" parent="1">
          <mxGeometry x="400" y="290" width="52" height="61" as="geometry" />
        </mxCell>
      </root>
    </mxGraphModel>
  </diagram>
</mxfile>
